<svg width="274" height="164" viewBox="0 0 274 164" fill="none" xmlns="http://www.w3.org/2000/svg">
<rect x="22" y="45" width="28" height="28" rx="10" fill="#3390EC"/>
<path d="M36.5201 52.9637C36.5201 52.6159 36.2381 52.334 35.8904 52.334C35.5426 52.334 35.2607 52.6159 35.2607 52.9637V58.2607H29.9637C29.6159 58.2607 29.334 58.5426 29.334 58.8904C29.334 59.2381 29.6159 59.5201 29.9637 59.5201H35.2607V64.817C35.2607 65.1648 35.5426 65.4467 35.8904 65.4467C36.2381 65.4467 36.5201 65.1648 36.5201 64.817V59.5201H41.817C42.1648 59.5201 42.4467 59.2381 42.4467 58.8904C42.4467 58.5426 42.1648 58.2607 41.817 58.2607H36.5201V52.9637Z" fill="white"/>
<path d="M70.375 52.8636V64.5H68.625V54.3636H63.1477V64.5H61.3977V52.8636H70.375ZM73.9972 67.7727C73.7434 67.7727 73.5123 67.7519 73.304 67.7102C73.0956 67.6723 72.9403 67.6307 72.8381 67.5852L73.2472 66.1932C73.5578 66.2765 73.8343 66.3125 74.0767 66.3011C74.3191 66.2898 74.5331 66.1989 74.7188 66.0284C74.9081 65.858 75.0748 65.5795 75.2188 65.1932L75.429 64.6136L72.2358 55.7727H74.054L76.2642 62.5455H76.3551L78.5653 55.7727H80.3892L76.7926 65.6648C76.6259 66.1193 76.4138 66.5038 76.1562 66.8182C75.8987 67.1364 75.5919 67.375 75.2358 67.5341C74.8797 67.6932 74.4669 67.7727 73.9972 67.7727ZM88.7188 52.5227L89.4233 53.5966C89.1619 53.8352 88.8646 54.0057 88.5312 54.108C88.2017 54.2064 87.821 54.2689 87.3892 54.2955C86.9574 54.3182 86.4631 54.339 85.9062 54.358C85.2775 54.3769 84.7604 54.5133 84.3551 54.767C83.9498 55.017 83.6373 55.3883 83.4176 55.8807C83.2017 56.3693 83.0616 56.983 82.9972 57.7216H83.1051C83.3892 57.1799 83.7831 56.7746 84.2869 56.5057C84.7945 56.2367 85.3646 56.1023 85.9972 56.1023C86.7017 56.1023 87.3286 56.2633 87.8778 56.5852C88.4271 56.9072 88.8589 57.3788 89.1733 58C89.4915 58.6174 89.6506 59.3731 89.6506 60.267C89.6506 61.1723 89.4839 61.9545 89.1506 62.6136C88.821 63.2727 88.3551 63.7822 87.7528 64.142C87.1544 64.4981 86.4479 64.6761 85.6335 64.6761C84.8191 64.6761 84.1089 64.4924 83.5028 64.125C82.9006 63.7538 82.4328 63.2045 82.0994 62.4773C81.7699 61.75 81.6051 60.8523 81.6051 59.7841V58.9205C81.6051 56.9242 81.9612 55.4223 82.6733 54.4148C83.3854 53.4072 84.4498 52.8902 85.8665 52.8636C86.3248 52.8523 86.7339 52.8504 87.0938 52.858C87.4536 52.8617 87.768 52.8447 88.0369 52.8068C88.3097 52.7652 88.5369 52.6705 88.7188 52.5227ZM85.6392 63.25C86.1127 63.25 86.5199 63.1307 86.8608 62.892C87.2055 62.6496 87.4706 62.3068 87.6562 61.8636C87.8419 61.4205 87.9347 60.8977 87.9347 60.2955C87.9347 59.7045 87.8419 59.2027 87.6562 58.7898C87.4706 58.3769 87.2055 58.0625 86.8608 57.8466C86.5161 57.6269 86.1032 57.517 85.6222 57.517C85.2661 57.517 84.9479 57.5795 84.6676 57.7045C84.3873 57.8258 84.1468 58.0057 83.946 58.2443C83.7491 58.483 83.5956 58.7746 83.4858 59.1193C83.3797 59.4602 83.3229 59.8523 83.3153 60.2955C83.3153 61.197 83.5218 61.9148 83.9347 62.4489C84.3513 62.983 84.9195 63.25 85.6392 63.25ZM90.8608 64.5L90.8551 63.0284H91.1676C91.41 63.0284 91.6127 62.9773 91.7756 62.875C91.9422 62.7689 92.0786 62.5909 92.1847 62.3409C92.2907 62.0909 92.3722 61.7462 92.429 61.3068C92.4858 60.8636 92.5275 60.3068 92.554 59.6364L92.7074 55.7727H98.7983V64.5H97.1335V57.2386H94.2812L94.1449 60.2045C94.1108 60.9242 94.0369 61.553 93.9233 62.0909C93.8134 62.6288 93.6525 63.0777 93.4403 63.4375C93.2282 63.7936 92.9555 64.0606 92.6222 64.2386C92.2888 64.4129 91.8835 64.5 91.4062 64.5H90.8608ZM102.729 62.1193L106.575 55.7727H108.405V64.5H106.74V58.1477L102.911 64.5H101.064V55.7727H102.729V62.1193ZM110.689 64.5V55.7727H112.388V59.4318H113.206L116.087 55.7727H118.189L114.808 60.017L118.229 64.5H116.121L113.49 61.0114H112.388V64.5H110.689ZM122.088 64.6932C121.535 64.6932 121.035 64.5909 120.588 64.3864C120.141 64.178 119.787 63.8769 119.526 63.483C119.268 63.089 119.139 62.6061 119.139 62.0341C119.139 61.5417 119.234 61.1364 119.423 60.8182C119.613 60.5 119.868 60.2481 120.19 60.0625C120.512 59.8769 120.872 59.7367 121.27 59.642C121.668 59.5473 122.073 59.4754 122.486 59.4261C123.009 59.3655 123.433 59.3163 123.759 59.2784C124.084 59.2367 124.321 59.1705 124.469 59.0795C124.616 58.9886 124.69 58.8409 124.69 58.6364V58.5966C124.69 58.1004 124.55 57.7159 124.27 57.4432C123.993 57.1705 123.58 57.0341 123.031 57.0341C122.459 57.0341 122.009 57.161 121.679 57.4148C121.353 57.6648 121.128 57.9432 121.003 58.25L119.406 57.8864C119.596 57.3561 119.872 56.928 120.236 56.6023C120.603 56.2727 121.026 56.0341 121.503 55.8864C121.98 55.7348 122.482 55.6591 123.009 55.6591C123.357 55.6591 123.726 55.7008 124.116 55.7841C124.51 55.8636 124.878 56.0114 125.219 56.2273C125.563 56.4432 125.846 56.7519 126.065 57.1534C126.285 57.5511 126.395 58.0682 126.395 58.7045V64.5H124.736V63.3068H124.668C124.558 63.5265 124.393 63.7424 124.173 63.9545C123.954 64.1667 123.671 64.3428 123.327 64.483C122.982 64.6231 122.569 64.6932 122.088 64.6932ZM122.457 63.3295C122.927 63.3295 123.329 63.2367 123.662 63.0511C123.999 62.8655 124.255 62.6231 124.429 62.3239C124.607 62.0208 124.696 61.697 124.696 61.3523V60.2273C124.635 60.2879 124.518 60.3447 124.344 60.3977C124.173 60.447 123.978 60.4905 123.759 60.5284C123.539 60.5625 123.325 60.5947 123.116 60.625C122.908 60.6515 122.734 60.6742 122.594 60.6932C122.264 60.7348 121.963 60.8049 121.69 60.9034C121.421 61.0019 121.205 61.1439 121.043 61.3295C120.884 61.5114 120.804 61.7538 120.804 62.0568C120.804 62.4773 120.959 62.7955 121.27 63.0114C121.58 63.2235 121.976 63.3295 122.457 63.3295ZM135.777 55.7727V63.108H137.055V67.3125H135.379V64.5H128.658V55.7727H130.322V63.0341H134.118V55.7727H135.777ZM140.604 62.1193L144.45 55.7727H146.28V64.5H144.615V58.1477L140.786 64.5H138.939V55.7727H140.604V62.1193ZM153.768 64.5V57.2216H151.678C151.181 57.2216 150.795 57.3371 150.518 57.5682C150.242 57.7992 150.104 58.1023 150.104 58.4773C150.104 58.8485 150.231 59.1477 150.484 59.375C150.742 59.5985 151.102 59.7102 151.564 59.7102H154.263V61.0852H151.564C150.92 61.0852 150.363 60.9792 149.893 60.767C149.428 60.5511 149.068 60.2462 148.814 59.8523C148.564 59.4583 148.439 58.9924 148.439 58.4545C148.439 57.9053 148.568 57.4318 148.825 57.0341C149.087 56.6326 149.46 56.322 149.945 56.1023C150.433 55.8826 151.011 55.7727 151.678 55.7727H155.365V64.5H153.768ZM148.041 64.5L150.501 60.0909H152.24L149.78 64.5H148.041ZM165.537 64.6761C164.692 64.6761 163.965 64.4848 163.355 64.1023C162.749 63.7159 162.283 63.1837 161.957 62.5057C161.632 61.8277 161.469 61.0511 161.469 60.1761C161.469 59.2898 161.635 58.5076 161.969 57.8295C162.302 57.1477 162.772 56.6155 163.378 56.233C163.984 55.8504 164.698 55.6591 165.52 55.6591C166.183 55.6591 166.774 55.7822 167.293 56.0284C167.812 56.2708 168.23 56.6117 168.548 57.0511C168.87 57.4905 169.062 58.0038 169.122 58.5909H167.469C167.378 58.1818 167.17 57.8295 166.844 57.5341C166.522 57.2386 166.09 57.0909 165.548 57.0909C165.075 57.0909 164.66 57.2159 164.304 57.4659C163.952 57.7121 163.677 58.0644 163.48 58.5227C163.283 58.9773 163.185 59.5152 163.185 60.1364C163.185 60.7727 163.281 61.322 163.474 61.7841C163.668 62.2462 163.94 62.6042 164.293 62.858C164.649 63.1117 165.067 63.2386 165.548 63.2386C165.87 63.2386 166.162 63.1799 166.423 63.0625C166.688 62.9413 166.91 62.7689 167.088 62.5455C167.27 62.322 167.397 62.053 167.469 61.7386H169.122C169.062 62.303 168.878 62.8068 168.571 63.25C168.264 63.6932 167.853 64.0417 167.338 64.2955C166.827 64.5492 166.226 64.6761 165.537 64.6761ZM174.615 64.6761C173.797 64.6761 173.083 64.4886 172.473 64.1136C171.863 63.7386 171.39 63.214 171.053 62.5398C170.715 61.8655 170.547 61.0777 170.547 60.1761C170.547 59.2708 170.715 58.4792 171.053 57.8011C171.39 57.1231 171.863 56.5966 172.473 56.2216C173.083 55.8466 173.797 55.6591 174.615 55.6591C175.433 55.6591 176.147 55.8466 176.757 56.2216C177.367 56.5966 177.84 57.1231 178.178 57.8011C178.515 58.4792 178.683 59.2708 178.683 60.1761C178.683 61.0777 178.515 61.8655 178.178 62.5398C177.84 63.214 177.367 63.7386 176.757 64.1136C176.147 64.4886 175.433 64.6761 174.615 64.6761ZM174.621 63.25C175.151 63.25 175.59 63.1098 175.939 62.8295C176.287 62.5492 176.545 62.1761 176.712 61.7102C176.882 61.2443 176.967 60.7311 176.967 60.1705C176.967 59.6136 176.882 59.1023 176.712 58.6364C176.545 58.1667 176.287 57.7898 175.939 57.5057C175.59 57.2216 175.151 57.0795 174.621 57.0795C174.087 57.0795 173.643 57.2216 173.291 57.5057C172.943 57.7898 172.683 58.1667 172.513 58.6364C172.346 59.1023 172.263 59.6136 172.263 60.1705C172.263 60.7311 172.346 61.2443 172.513 61.7102C172.683 62.1761 172.943 62.5492 173.291 62.8295C173.643 63.1098 174.087 63.25 174.621 63.25ZM184.256 64.6761C183.438 64.6761 182.723 64.4886 182.114 64.1136C181.504 63.7386 181.03 63.214 180.693 62.5398C180.356 61.8655 180.188 61.0777 180.188 60.1761C180.188 59.2708 180.356 58.4792 180.693 57.8011C181.03 57.1231 181.504 56.5966 182.114 56.2216C182.723 55.8466 183.438 55.6591 184.256 55.6591C185.074 55.6591 185.788 55.8466 186.398 56.2216C187.008 56.5966 187.481 57.1231 187.818 57.8011C188.155 58.4792 188.324 59.2708 188.324 60.1761C188.324 61.0777 188.155 61.8655 187.818 62.5398C187.481 63.214 187.008 63.7386 186.398 64.1136C185.788 64.4886 185.074 64.6761 184.256 64.6761ZM184.261 63.25C184.792 63.25 185.231 63.1098 185.58 62.8295C185.928 62.5492 186.186 62.1761 186.352 61.7102C186.523 61.2443 186.608 60.7311 186.608 60.1705C186.608 59.6136 186.523 59.1023 186.352 58.6364C186.186 58.1667 185.928 57.7898 185.58 57.5057C185.231 57.2216 184.792 57.0795 184.261 57.0795C183.727 57.0795 183.284 57.2216 182.932 57.5057C182.583 57.7898 182.324 58.1667 182.153 58.6364C181.987 59.1023 181.903 59.6136 181.903 60.1705C181.903 60.7311 181.987 61.2443 182.153 61.7102C182.324 62.1761 182.583 62.5492 182.932 62.8295C183.284 63.1098 183.727 63.25 184.261 63.25ZM196.953 52.5227L197.658 53.5966C197.396 53.8352 197.099 54.0057 196.766 54.108C196.436 54.2064 196.055 54.2689 195.624 54.2955C195.192 54.3182 194.697 54.339 194.141 54.358C193.512 54.3769 192.995 54.5133 192.589 54.767C192.184 55.017 191.872 55.3883 191.652 55.8807C191.436 56.3693 191.296 56.983 191.232 57.7216H191.339C191.624 57.1799 192.018 56.7746 192.521 56.5057C193.029 56.2367 193.599 56.1023 194.232 56.1023C194.936 56.1023 195.563 56.2633 196.112 56.5852C196.661 56.9072 197.093 57.3788 197.408 58C197.726 58.6174 197.885 59.3731 197.885 60.267C197.885 61.1723 197.718 61.9545 197.385 62.6136C197.055 63.2727 196.589 63.7822 195.987 64.142C195.389 64.4981 194.682 64.6761 193.868 64.6761C193.054 64.6761 192.343 64.4924 191.737 64.125C191.135 63.7538 190.667 63.2045 190.334 62.4773C190.004 61.75 189.839 60.8523 189.839 59.7841V58.9205C189.839 56.9242 190.196 55.4223 190.908 54.4148C191.62 53.4072 192.684 52.8902 194.101 52.8636C194.559 52.8523 194.968 52.8504 195.328 52.858C195.688 52.8617 196.002 52.8447 196.271 52.8068C196.544 52.7652 196.771 52.6705 196.953 52.5227ZM193.874 63.25C194.347 63.25 194.754 63.1307 195.095 62.892C195.44 62.6496 195.705 62.3068 195.891 61.8636C196.076 61.4205 196.169 60.8977 196.169 60.2955C196.169 59.7045 196.076 59.2027 195.891 58.7898C195.705 58.3769 195.44 58.0625 195.095 57.8466C194.75 57.6269 194.338 57.517 193.857 57.517C193.5 57.517 193.182 57.5795 192.902 57.7045C192.622 57.8258 192.381 58.0057 192.18 58.2443C191.983 58.483 191.83 58.7746 191.72 59.1193C191.614 59.4602 191.557 59.8523 191.55 60.2955C191.55 61.197 191.756 61.9148 192.169 62.4489C192.586 62.983 193.154 63.25 193.874 63.25ZM212.288 63.0341L212.129 67H210.464V64.5H209.379V63.0341H212.288ZM199.783 55.7727H201.447V63.0284H204.464V55.7727H206.129V63.0284H209.146V55.7727H210.811V64.5H199.783V55.7727ZM217.747 64.6761C216.887 64.6761 216.147 64.4924 215.526 64.125C214.908 63.7538 214.431 63.233 214.094 62.5625C213.76 61.8883 213.594 61.0985 213.594 60.1932C213.594 59.2992 213.76 58.5114 214.094 57.8295C214.431 57.1477 214.901 56.6155 215.503 56.233C216.109 55.8504 216.817 55.6591 217.628 55.6591C218.12 55.6591 218.598 55.7405 219.06 55.9034C219.522 56.0663 219.937 56.322 220.304 56.6705C220.671 57.0189 220.961 57.4716 221.173 58.0284C221.385 58.5814 221.491 59.2538 221.491 60.0455V60.6477H214.554V59.375H219.827C219.827 58.928 219.736 58.5322 219.554 58.1875C219.372 57.839 219.116 57.5644 218.787 57.3636C218.461 57.1629 218.079 57.0625 217.639 57.0625C217.162 57.0625 216.745 57.1799 216.389 57.4148C216.037 57.6458 215.764 57.9489 215.571 58.3239C215.382 58.6951 215.287 59.0985 215.287 59.5341V60.5284C215.287 61.1117 215.389 61.608 215.594 62.017C215.802 62.4261 216.092 62.7386 216.463 62.9545C216.834 63.1667 217.268 63.2727 217.764 63.2727C218.086 63.2727 218.38 63.2273 218.645 63.1364C218.91 63.0417 219.139 62.9015 219.332 62.7159C219.526 62.5303 219.673 62.3011 219.776 62.0284L221.384 62.3182C221.255 62.7917 221.024 63.2064 220.69 63.5625C220.361 63.9148 219.946 64.1894 219.446 64.3864C218.95 64.5795 218.384 64.6761 217.747 64.6761ZM229.291 59.4034V60.875H224.564V59.4034H229.291ZM225.041 55.7727V64.5H223.376V55.7727H225.041ZM230.479 55.7727V64.5H228.82V55.7727H230.479ZM234.416 62.1193L238.263 55.7727H240.092V64.5H238.428V58.1477L234.598 64.5H232.751V55.7727H234.416V62.1193ZM244.041 62.1193L247.888 55.7727H249.717V64.5H248.053V58.1477L244.223 64.5H242.376V55.7727H244.041V62.1193ZM247.161 52.8182H248.558C248.558 53.4583 248.331 53.9792 247.876 54.3807C247.426 54.7784 246.816 54.9773 246.047 54.9773C245.282 54.9773 244.674 54.7784 244.223 54.3807C243.772 53.9792 243.547 53.4583 243.547 52.8182H244.939C244.939 53.1023 245.022 53.3542 245.189 53.5739C245.356 53.7898 245.642 53.8977 246.047 53.8977C246.445 53.8977 246.729 53.7898 246.899 53.5739C247.073 53.358 247.161 53.1061 247.161 52.8182Z" fill="white"/>
<rect x="22" y="96" width="28" height="28" rx="10" fill="#3390EC"/>
<path d="M36.5201 103.964C36.5201 103.616 36.2381 103.334 35.8904 103.334C35.5426 103.334 35.2607 103.616 35.2607 103.964V109.261H29.9637C29.6159 109.261 29.334 109.543 29.334 109.89C29.334 110.238 29.6159 110.52 29.9637 110.52H35.2607V115.817C35.2607 116.165 35.5426 116.447 35.8904 116.447C36.2381 116.447 36.5201 116.165 36.5201 115.817V110.52H41.817C42.1648 110.52 42.4467 110.238 42.4467 109.89C42.4467 109.543 42.1648 109.261 41.817 109.261H36.5201V103.964Z" fill="white"/>
<path d="M60.3977 118.312V114.011H61.1648C61.4261 113.792 61.6705 113.479 61.8977 113.074C62.125 112.669 62.3182 112.121 62.4773 111.432C62.6364 110.742 62.7462 109.858 62.8068 108.778L63.0795 103.864H70.2557V114.011H71.5739V118.295H69.892V115.5H62.0795V118.312H60.3977ZM63.233 114.011H68.5739V105.375H64.6705L64.4886 108.778C64.4394 109.6 64.358 110.339 64.2443 110.994C64.1345 111.65 63.9924 112.229 63.8182 112.733C63.6477 113.233 63.4527 113.659 63.233 114.011ZM77.0369 115.676C76.2188 115.676 75.5047 115.489 74.8949 115.114C74.285 114.739 73.8116 114.214 73.4744 113.54C73.1373 112.866 72.9688 112.078 72.9688 111.176C72.9688 110.271 73.1373 109.479 73.4744 108.801C73.8116 108.123 74.285 107.597 74.8949 107.222C75.5047 106.847 76.2188 106.659 77.0369 106.659C77.8551 106.659 78.5691 106.847 79.179 107.222C79.7888 107.597 80.2623 108.123 80.5994 108.801C80.9366 109.479 81.1051 110.271 81.1051 111.176C81.1051 112.078 80.9366 112.866 80.5994 113.54C80.2623 114.214 79.7888 114.739 79.179 115.114C78.5691 115.489 77.8551 115.676 77.0369 115.676ZM77.0426 114.25C77.5729 114.25 78.0123 114.11 78.3608 113.83C78.7093 113.549 78.9669 113.176 79.1335 112.71C79.304 112.244 79.3892 111.731 79.3892 111.17C79.3892 110.614 79.304 110.102 79.1335 109.636C78.9669 109.167 78.7093 108.79 78.3608 108.506C78.0123 108.222 77.5729 108.08 77.0426 108.08C76.5085 108.08 76.0653 108.222 75.7131 108.506C75.3646 108.79 75.1051 109.167 74.9347 109.636C74.768 110.102 74.6847 110.614 74.6847 111.17C74.6847 111.731 74.768 112.244 74.9347 112.71C75.1051 113.176 75.3646 113.549 75.7131 113.83C76.0653 114.11 76.5085 114.25 77.0426 114.25ZM89.7344 103.523L90.4389 104.597C90.1776 104.835 89.8802 105.006 89.5469 105.108C89.2173 105.206 88.8366 105.269 88.4048 105.295C87.973 105.318 87.4787 105.339 86.9219 105.358C86.2931 105.377 85.776 105.513 85.3707 105.767C84.9654 106.017 84.6529 106.388 84.4332 106.881C84.2173 107.369 84.0772 107.983 84.0128 108.722H84.1207C84.4048 108.18 84.7988 107.775 85.3026 107.506C85.8101 107.237 86.3802 107.102 87.0128 107.102C87.7173 107.102 88.3442 107.263 88.8935 107.585C89.4427 107.907 89.8745 108.379 90.1889 109C90.5071 109.617 90.6662 110.373 90.6662 111.267C90.6662 112.172 90.4995 112.955 90.1662 113.614C89.8366 114.273 89.3707 114.782 88.7685 115.142C88.17 115.498 87.4635 115.676 86.6491 115.676C85.8348 115.676 85.1245 115.492 84.5185 115.125C83.9162 114.754 83.4484 114.205 83.1151 113.477C82.7855 112.75 82.6207 111.852 82.6207 110.784V109.92C82.6207 107.924 82.9768 106.422 83.6889 105.415C84.401 104.407 85.4654 103.89 86.8821 103.864C87.3404 103.852 87.7495 103.85 88.1094 103.858C88.4692 103.862 88.7836 103.845 89.0526 103.807C89.3253 103.765 89.5526 103.67 89.7344 103.523ZM86.6548 114.25C87.1283 114.25 87.5355 114.131 87.8764 113.892C88.2211 113.65 88.4863 113.307 88.6719 112.864C88.8575 112.42 88.9503 111.898 88.9503 111.295C88.9503 110.705 88.8575 110.203 88.6719 109.79C88.4863 109.377 88.2211 109.062 87.8764 108.847C87.5317 108.627 87.1188 108.517 86.6378 108.517C86.2817 108.517 85.9635 108.58 85.6832 108.705C85.4029 108.826 85.1624 109.006 84.9616 109.244C84.7647 109.483 84.6113 109.775 84.5014 110.119C84.3954 110.46 84.3385 110.852 84.331 111.295C84.331 112.197 84.5374 112.915 84.9503 113.449C85.367 113.983 85.9351 114.25 86.6548 114.25ZM95.1037 115.693C94.5507 115.693 94.0507 115.591 93.6037 115.386C93.1567 115.178 92.8026 114.877 92.5412 114.483C92.2836 114.089 92.1548 113.606 92.1548 113.034C92.1548 112.542 92.2495 112.136 92.4389 111.818C92.6283 111.5 92.884 111.248 93.206 111.062C93.5279 110.877 93.8878 110.737 94.2855 110.642C94.6832 110.547 95.0885 110.475 95.5014 110.426C96.0241 110.366 96.4484 110.316 96.7741 110.278C97.0999 110.237 97.3366 110.17 97.4844 110.08C97.6321 109.989 97.706 109.841 97.706 109.636V109.597C97.706 109.1 97.5658 108.716 97.2855 108.443C97.009 108.17 96.5961 108.034 96.0469 108.034C95.4749 108.034 95.0241 108.161 94.6946 108.415C94.3688 108.665 94.1435 108.943 94.0185 109.25L92.4219 108.886C92.6113 108.356 92.8878 107.928 93.2514 107.602C93.6188 107.273 94.0412 107.034 94.5185 106.886C94.9957 106.735 95.4976 106.659 96.0241 106.659C96.3726 106.659 96.742 106.701 97.1321 106.784C97.526 106.864 97.8935 107.011 98.2344 107.227C98.5791 107.443 98.8613 107.752 99.081 108.153C99.3007 108.551 99.4105 109.068 99.4105 109.705V115.5H97.7514V114.307H97.6832C97.5734 114.527 97.4086 114.742 97.1889 114.955C96.9692 115.167 96.687 115.343 96.3423 115.483C95.9976 115.623 95.5848 115.693 95.1037 115.693ZM95.473 114.33C95.9427 114.33 96.3442 114.237 96.6776 114.051C97.0147 113.866 97.2704 113.623 97.4446 113.324C97.6226 113.021 97.7116 112.697 97.7116 112.352V111.227C97.651 111.288 97.5336 111.345 97.3594 111.398C97.1889 111.447 96.9938 111.491 96.7741 111.528C96.5545 111.562 96.3404 111.595 96.1321 111.625C95.9238 111.652 95.7495 111.674 95.6094 111.693C95.2798 111.735 94.9787 111.805 94.706 111.903C94.437 112.002 94.2211 112.144 94.0582 112.33C93.8991 112.511 93.8196 112.754 93.8196 113.057C93.8196 113.477 93.9749 113.795 94.2855 114.011C94.5961 114.223 94.992 114.33 95.473 114.33ZM101.673 115.5V106.773H105.293C106.277 106.773 107.058 106.983 107.634 107.403C108.209 107.82 108.497 108.386 108.497 109.102C108.497 109.614 108.334 110.019 108.009 110.318C107.683 110.617 107.251 110.818 106.713 110.92C107.103 110.966 107.461 111.083 107.787 111.273C108.113 111.458 108.374 111.708 108.571 112.023C108.772 112.337 108.872 112.712 108.872 113.148C108.872 113.61 108.753 114.019 108.514 114.375C108.276 114.727 107.929 115.004 107.474 115.205C107.024 115.402 106.48 115.5 105.844 115.5H101.673ZM103.27 114.08H105.844C106.264 114.08 106.594 113.979 106.832 113.778C107.071 113.578 107.19 113.305 107.19 112.96C107.19 112.555 107.071 112.237 106.832 112.006C106.594 111.771 106.264 111.653 105.844 111.653H103.27V114.08ZM103.27 110.409H105.31C105.628 110.409 105.901 110.364 106.128 110.273C106.359 110.182 106.535 110.053 106.656 109.886C106.781 109.716 106.844 109.515 106.844 109.284C106.844 108.947 106.705 108.684 106.429 108.494C106.152 108.305 105.774 108.21 105.293 108.21H103.27V110.409ZM110.048 115.5L110.043 114.028H110.355C110.598 114.028 110.8 113.977 110.963 113.875C111.13 113.769 111.266 113.591 111.372 113.341C111.478 113.091 111.56 112.746 111.616 112.307C111.673 111.864 111.715 111.307 111.741 110.636L111.895 106.773H117.986V115.5H116.321V108.239H113.469L113.332 111.205C113.298 111.924 113.224 112.553 113.111 113.091C113.001 113.629 112.84 114.078 112.628 114.438C112.416 114.794 112.143 115.061 111.81 115.239C111.476 115.413 111.071 115.5 110.594 115.5H110.048ZM124.013 115.676C123.153 115.676 122.412 115.492 121.791 115.125C121.174 114.754 120.696 114.233 120.359 113.562C120.026 112.888 119.859 112.098 119.859 111.193C119.859 110.299 120.026 109.511 120.359 108.83C120.696 108.148 121.166 107.616 121.768 107.233C122.375 106.85 123.083 106.659 123.893 106.659C124.386 106.659 124.863 106.741 125.325 106.903C125.787 107.066 126.202 107.322 126.57 107.67C126.937 108.019 127.227 108.472 127.439 109.028C127.651 109.581 127.757 110.254 127.757 111.045V111.648H120.82V110.375H126.092C126.092 109.928 126.001 109.532 125.82 109.188C125.638 108.839 125.382 108.564 125.053 108.364C124.727 108.163 124.344 108.062 123.905 108.062C123.428 108.062 123.011 108.18 122.655 108.415C122.303 108.646 122.03 108.949 121.837 109.324C121.647 109.695 121.553 110.098 121.553 110.534V111.528C121.553 112.112 121.655 112.608 121.859 113.017C122.068 113.426 122.357 113.739 122.729 113.955C123.1 114.167 123.534 114.273 124.03 114.273C124.352 114.273 124.645 114.227 124.911 114.136C125.176 114.042 125.405 113.902 125.598 113.716C125.791 113.53 125.939 113.301 126.041 113.028L127.649 113.318C127.52 113.792 127.289 114.206 126.956 114.562C126.626 114.915 126.212 115.189 125.712 115.386C125.215 115.58 124.649 115.676 124.013 115.676ZM135.557 110.403V111.875H130.83V110.403H135.557ZM131.307 106.773V115.5H129.642V106.773H131.307ZM136.744 106.773V115.5H135.085V106.773H136.744ZM140.682 113.119L144.528 106.773H146.358V115.5H144.693V109.148L140.864 115.5H139.017V106.773H140.682V113.119ZM152.403 115.676C151.544 115.676 150.803 115.492 150.182 115.125C149.564 114.754 149.087 114.233 148.75 113.562C148.417 112.888 148.25 112.098 148.25 111.193C148.25 110.299 148.417 109.511 148.75 108.83C149.087 108.148 149.557 107.616 150.159 107.233C150.765 106.85 151.473 106.659 152.284 106.659C152.777 106.659 153.254 106.741 153.716 106.903C154.178 107.066 154.593 107.322 154.96 107.67C155.328 108.019 155.617 108.472 155.83 109.028C156.042 109.581 156.148 110.254 156.148 111.045V111.648H149.21V110.375H154.483C154.483 109.928 154.392 109.532 154.21 109.188C154.028 108.839 153.773 108.564 153.443 108.364C153.117 108.163 152.735 108.062 152.295 108.062C151.818 108.062 151.402 108.18 151.045 108.415C150.693 108.646 150.42 108.949 150.227 109.324C150.038 109.695 149.943 110.098 149.943 110.534V111.528C149.943 112.112 150.045 112.608 150.25 113.017C150.458 113.426 150.748 113.739 151.119 113.955C151.491 114.167 151.924 114.273 152.42 114.273C152.742 114.273 153.036 114.227 153.301 114.136C153.566 114.042 153.795 113.902 153.989 113.716C154.182 113.53 154.33 113.301 154.432 113.028L156.04 113.318C155.911 113.792 155.68 114.206 155.347 114.562C155.017 114.915 154.602 115.189 154.102 115.386C153.606 115.58 153.04 115.676 152.403 115.676ZM163.341 118.773C163.087 118.773 162.856 118.752 162.648 118.71C162.439 118.672 162.284 118.631 162.182 118.585L162.591 117.193C162.902 117.277 163.178 117.313 163.42 117.301C163.663 117.29 163.877 117.199 164.062 117.028C164.252 116.858 164.419 116.58 164.562 116.193L164.773 115.614L161.58 106.773H163.398L165.608 113.545H165.699L167.909 106.773H169.733L166.136 116.665C165.97 117.119 165.758 117.504 165.5 117.818C165.242 118.136 164.936 118.375 164.58 118.534C164.223 118.693 163.811 118.773 163.341 118.773ZM178.085 106.773V115.5H176.426V106.773H178.085ZM177.364 110.824V112.29C177.102 112.396 176.826 112.491 176.534 112.574C176.242 112.653 175.936 112.716 175.614 112.761C175.292 112.807 174.956 112.83 174.608 112.83C173.528 112.83 172.67 112.566 172.034 112.04C171.398 111.509 171.08 110.699 171.08 109.608V106.756H172.733V109.608C172.733 110.021 172.809 110.356 172.96 110.614C173.112 110.871 173.328 111.061 173.608 111.182C173.888 111.303 174.222 111.364 174.608 111.364C175.119 111.364 175.591 111.316 176.023 111.222C176.458 111.123 176.905 110.991 177.364 110.824ZM182.885 115.693C182.332 115.693 181.832 115.591 181.385 115.386C180.938 115.178 180.584 114.877 180.322 114.483C180.065 114.089 179.936 113.606 179.936 113.034C179.936 112.542 180.031 112.136 180.22 111.818C180.41 111.5 180.665 111.248 180.987 111.062C181.309 110.877 181.669 110.737 182.067 110.642C182.464 110.547 182.87 110.475 183.283 110.426C183.805 110.366 184.23 110.316 184.555 110.278C184.881 110.237 185.118 110.17 185.266 110.08C185.413 109.989 185.487 109.841 185.487 109.636V109.597C185.487 109.1 185.347 108.716 185.067 108.443C184.79 108.17 184.377 108.034 183.828 108.034C183.256 108.034 182.805 108.161 182.476 108.415C182.15 108.665 181.925 108.943 181.8 109.25L180.203 108.886C180.393 108.356 180.669 107.928 181.033 107.602C181.4 107.273 181.822 107.034 182.3 106.886C182.777 106.735 183.279 106.659 183.805 106.659C184.154 106.659 184.523 106.701 184.913 106.784C185.307 106.864 185.675 107.011 186.016 107.227C186.36 107.443 186.643 107.752 186.862 108.153C187.082 108.551 187.192 109.068 187.192 109.705V115.5H185.533V114.307H185.464C185.355 114.527 185.19 114.742 184.97 114.955C184.75 115.167 184.468 115.343 184.124 115.483C183.779 115.623 183.366 115.693 182.885 115.693ZM183.254 114.33C183.724 114.33 184.125 114.237 184.459 114.051C184.796 113.866 185.052 113.623 185.226 113.324C185.404 113.021 185.493 112.697 185.493 112.352V111.227C185.432 111.288 185.315 111.345 185.141 111.398C184.97 111.447 184.775 111.491 184.555 111.528C184.336 111.562 184.122 111.595 183.913 111.625C183.705 111.652 183.531 111.674 183.391 111.693C183.061 111.735 182.76 111.805 182.487 111.903C182.218 112.002 182.002 112.144 181.839 112.33C181.68 112.511 181.601 112.754 181.601 113.057C181.601 113.477 181.756 113.795 182.067 114.011C182.377 114.223 182.773 114.33 183.254 114.33ZM193.131 115.676C192.286 115.676 191.559 115.485 190.949 115.102C190.343 114.716 189.877 114.184 189.551 113.506C189.225 112.828 189.062 112.051 189.062 111.176C189.062 110.29 189.229 109.508 189.562 108.83C189.896 108.148 190.366 107.616 190.972 107.233C191.578 106.85 192.292 106.659 193.114 106.659C193.777 106.659 194.367 106.782 194.886 107.028C195.405 107.271 195.824 107.612 196.142 108.051C196.464 108.491 196.655 109.004 196.716 109.591H195.062C194.972 109.182 194.763 108.83 194.438 108.534C194.116 108.239 193.684 108.091 193.142 108.091C192.669 108.091 192.254 108.216 191.898 108.466C191.545 108.712 191.271 109.064 191.074 109.523C190.877 109.977 190.778 110.515 190.778 111.136C190.778 111.773 190.875 112.322 191.068 112.784C191.261 113.246 191.534 113.604 191.886 113.858C192.242 114.112 192.661 114.239 193.142 114.239C193.464 114.239 193.756 114.18 194.017 114.062C194.282 113.941 194.504 113.769 194.682 113.545C194.864 113.322 194.991 113.053 195.062 112.739H196.716C196.655 113.303 196.472 113.807 196.165 114.25C195.858 114.693 195.447 115.042 194.932 115.295C194.42 115.549 193.82 115.676 193.131 115.676ZM197.872 108.239V106.773H205.236V108.239H202.389V115.5H200.73V108.239H197.872ZM212.947 110.403V111.875H208.22V110.403H212.947ZM208.697 106.773V115.5H207.033V106.773H208.697ZM214.135 106.773V115.5H212.476V106.773H214.135ZM218.072 113.119L221.919 106.773H223.749V115.5H222.084V109.148L218.254 115.5H216.408V106.773H218.072V113.119ZM226.033 115.5V106.773H227.732V110.432H228.55L231.43 106.773H233.533L230.152 111.017L233.572 115.5H231.464L228.834 112.011H227.732V115.5H226.033ZM238.209 115.676C237.391 115.676 236.677 115.489 236.067 115.114C235.457 114.739 234.983 114.214 234.646 113.54C234.309 112.866 234.141 112.078 234.141 111.176C234.141 110.271 234.309 109.479 234.646 108.801C234.983 108.123 235.457 107.597 236.067 107.222C236.677 106.847 237.391 106.659 238.209 106.659C239.027 106.659 239.741 106.847 240.351 107.222C240.961 107.597 241.434 108.123 241.771 108.801C242.108 109.479 242.277 110.271 242.277 111.176C242.277 112.078 242.108 112.866 241.771 113.54C241.434 114.214 240.961 114.739 240.351 115.114C239.741 115.489 239.027 115.676 238.209 115.676ZM238.214 114.25C238.745 114.25 239.184 114.11 239.533 113.83C239.881 113.549 240.139 113.176 240.305 112.71C240.476 112.244 240.561 111.731 240.561 111.17C240.561 110.614 240.476 110.102 240.305 109.636C240.139 109.167 239.881 108.79 239.533 108.506C239.184 108.222 238.745 108.08 238.214 108.08C237.68 108.08 237.237 108.222 236.885 108.506C236.536 108.79 236.277 109.167 236.107 109.636C235.94 110.102 235.857 110.614 235.857 111.17C235.857 111.731 235.94 112.244 236.107 112.71C236.277 113.176 236.536 113.549 236.885 113.83C237.237 114.11 237.68 114.25 238.214 114.25ZM244.173 115.5V106.773H247.793C248.777 106.773 249.558 106.983 250.134 107.403C250.709 107.82 250.997 108.386 250.997 109.102C250.997 109.614 250.834 110.019 250.509 110.318C250.183 110.617 249.751 110.818 249.213 110.92C249.603 110.966 249.961 111.083 250.287 111.273C250.613 111.458 250.874 111.708 251.071 112.023C251.272 112.337 251.372 112.712 251.372 113.148C251.372 113.61 251.253 114.019 251.014 114.375C250.776 114.727 250.429 115.004 249.974 115.205C249.524 115.402 248.98 115.5 248.344 115.5H244.173ZM245.77 114.08H248.344C248.764 114.08 249.094 113.979 249.332 113.778C249.571 113.578 249.69 113.305 249.69 112.96C249.69 112.555 249.571 112.237 249.332 112.006C249.094 111.771 248.764 111.653 248.344 111.653H245.77V114.08ZM245.77 110.409H247.81C248.128 110.409 248.401 110.364 248.628 110.273C248.859 110.182 249.035 110.053 249.156 109.886C249.281 109.716 249.344 109.515 249.344 109.284C249.344 108.947 249.205 108.684 248.929 108.494C248.652 108.305 248.274 108.21 247.793 108.21H245.77V110.409Z" fill="white"/>
</svg>
